# Blender v2.82 (sub 7) OBJ File: ''
# www.blender.org
mtllib PaintChev.mtl
o Cube.001_Cube.002
v -1.070113 6.523180 -0.087391
v -0.989137 6.503035 -0.087391
v -1.070113 6.523180 0.155813
v -0.989137 6.503035 0.155813
v -2.761811 -0.277103 -0.087391
v -2.680835 -0.297248 -0.087391
v -2.761811 -0.277103 0.155813
v -2.680835 -0.297248 0.155813
v -1.404058 7.647822 0.858052
v -1.324474 7.675287 0.858052
v -1.394916 7.621332 0.616469
v -1.315332 7.648797 0.616469
v 1.315333 -0.231986 1.824991
v 1.394917 -0.204521 1.824991
v 1.312309 -0.223225 1.583408
v 1.391893 -0.195760 1.583408
v -0.975758 6.536695 0.149299
v -0.953591 6.544345 0.149299
v -0.975758 6.536695 -0.093904
v -0.953591 6.544345 -0.093904
v 0.820523 1.331728 0.149299
v 0.842689 1.339377 0.149299
v 0.820523 1.331728 -0.093904
v 0.842689 1.339377 -0.093904
v 0.831258 1.238571 1.499932
v 0.870327 1.252054 1.499932
v 0.751918 1.468469 1.499932
v 0.790987 1.481952 1.499932
v 0.831258 1.238571 -1.522863
v 0.870327 1.252054 -1.522863
v 0.751918 1.468469 -1.522863
v 0.790987 1.481952 -1.522863
v -1.404058 7.647822 -0.858052
v -1.324474 7.675287 -0.858052
v -1.394916 7.621332 -0.616469
v -1.315332 7.648797 -0.616469
v 1.315333 -0.231986 -1.824991
v 1.394917 -0.204521 -1.824991
v 1.312309 -0.223225 -1.583408
v 1.391893 -0.195760 -1.583408
v -0.949721 6.393208 -0.877782
v -0.894246 6.412353 -0.877782
v -1.029061 6.623105 -0.877782
v -0.973586 6.642250 -0.877782
v -0.949721 6.393208 0.859464
v -0.894246 6.412353 0.859464
v -1.029061 6.623106 0.859464
v -0.973586 6.642251 0.859464
v 0.381009 2.716042 -1.620076
v 0.381009 2.632597 -1.620076
v 0.885314 2.716042 -1.620076
v 0.885314 2.632597 -1.620076
v 0.381009 2.716042 1.621630
v 0.381009 2.632597 1.621630
v 0.885314 2.716042 1.621630
v 0.885314 2.632597 1.621630
v 0.390353 3.198114 -1.592206
v 0.308678 3.198114 -1.592206
v 0.390353 2.704500 -1.592206
v 0.308678 2.704500 -1.592206
v 0.390353 3.198114 1.580778
v 0.308678 3.198114 1.580778
v 0.390354 2.704500 1.580778
v 0.308678 2.704500 1.580778
vt 0.125000 0.500000
vt 0.375000 0.500000
vt 0.375000 0.750000
vt 0.125000 0.750000
vt 0.375000 0.250000
vt 0.625000 0.250000
vt 0.625000 0.500000
vt 0.375000 0.000000
vt 0.625000 0.000000
vt 0.625000 0.750000
vt 0.625000 1.000000
vt 0.375000 1.000000
vt 0.875000 0.500000
vt 0.875000 0.750000
vt 0.375000 0.000000
vt 0.625000 0.000000
vt 0.625000 0.250000
vt 0.375000 0.250000
vt 0.625000 0.500000
vt 0.375000 0.500000
vt 0.625000 0.750000
vt 0.375000 0.750000
vt 0.625000 1.000000
vt 0.375000 1.000000
vt 0.125000 0.500000
vt 0.125000 0.750000
vt 0.875000 0.500000
vt 0.875000 0.750000
vt 0.375000 0.000000
vt 0.625000 0.000000
vt 0.625000 0.250000
vt 0.375000 0.250000
vt 0.625000 0.500000
vt 0.375000 0.500000
vt 0.625000 0.750000
vt 0.375000 0.750000
vt 0.625000 1.000000
vt 0.375000 1.000000
vt 0.125000 0.500000
vt 0.125000 0.750000
vt 0.875000 0.500000
vt 0.875000 0.750000
vt 0.375000 0.000000
vt 0.625000 0.000000
vt 0.625000 0.250000
vt 0.375000 0.250000
vt 0.625000 0.500000
vt 0.375000 0.500000
vt 0.625000 0.750000
vt 0.375000 0.750000
vt 0.625000 1.000000
vt 0.375000 1.000000
vt 0.125000 0.500000
vt 0.125000 0.750000
vt 0.875000 0.500000
vt 0.875000 0.750000
vt 0.375000 0.000000
vt 0.375000 0.250000
vt 0.625000 0.250000
vt 0.625000 0.000000
vt 0.375000 0.500000
vt 0.625000 0.500000
vt 0.375000 0.750000
vt 0.625000 0.750000
vt 0.375000 1.000000
vt 0.625000 1.000000
vt 0.125000 0.500000
vt 0.125000 0.750000
vt 0.875000 0.750000
vt 0.875000 0.500000
vt 0.375000 0.000000
vt 0.375000 0.250000
vt 0.625000 0.250000
vt 0.625000 0.000000
vt 0.375000 0.500000
vt 0.625000 0.500000
vt 0.375000 0.750000
vt 0.625000 0.750000
vt 0.375000 1.000000
vt 0.625000 1.000000
vt 0.125000 0.500000
vt 0.125000 0.750000
vt 0.875000 0.750000
vt 0.875000 0.500000
vt 0.125000 0.500000
vt 0.375000 0.500000
vt 0.375000 0.750000
vt 0.125000 0.750000
vt 0.375000 0.250000
vt 0.625000 0.250000
vt 0.625000 0.500000
vt 0.375000 0.000000
vt 0.625000 0.000000
vt 0.625000 0.750000
vt 0.625000 1.000000
vt 0.375000 1.000000
vt 0.875000 0.500000
vt 0.875000 0.750000
vt 0.125000 0.500000
vt 0.375000 0.500000
vt 0.375000 0.750000
vt 0.125000 0.750000
vt 0.375000 0.250000
vt 0.625000 0.250000
vt 0.625000 0.500000
vt 0.375000 0.000000
vt 0.625000 0.000000
vt 0.625000 0.750000
vt 0.625000 1.000000
vt 0.375000 1.000000
vt 0.875000 0.500000
vt 0.875000 0.750000
vn 0.9704 -0.2414 0.0000
vn -0.0000 0.0000 -1.0000
vn -0.2414 -0.9704 0.0000
vn -0.0000 0.0000 1.0000
vn -0.9704 0.2414 0.0000
vn 0.2414 0.9704 0.0000
vn -0.3241 0.9390 -0.1152
vn 0.0378 -0.1094 -0.9933
vn 0.3260 -0.9446 -0.0383
vn -0.0376 0.1089 0.9933
vn -0.9453 -0.3262 0.0000
vn 0.9453 0.3262 -0.0000
vn -0.3262 0.9453 0.0000
vn 0.3262 -0.9453 0.0000
vn -0.3241 0.9390 0.1152
vn 0.0378 -0.1094 0.9933
vn 0.3260 -0.9446 0.0383
vn -0.0376 0.1089 -0.9933
vn 0.0000 -1.0000 -0.0000
vn -1.0000 0.0000 0.0000
vn 1.0000 0.0000 0.0000
vn 0.0000 1.0000 0.0000
usemtl Material.005
s off
f 6/1/1 2/2/1 4/3/1 8/4/1
f 6/5/2 5/6/2 1/7/2 2/2/2
f 8/8/3 7/9/3 5/6/3 6/5/3
f 4/3/4 3/10/4 7/11/4 8/12/4
f 1/7/5 5/13/5 7/14/5 3/10/5
f 2/2/6 1/7/6 3/10/6 4/3/6
f 9/15/7 10/16/7 12/17/7 11/18/7
f 11/18/8 12/17/8 16/19/8 15/20/8
f 15/20/9 16/19/9 14/21/9 13/22/9
f 13/22/10 14/21/10 10/23/10 9/24/10
f 11/25/11 15/20/11 13/22/11 9/26/11
f 16/19/12 12/27/12 10/28/12 14/21/12
f 17/29/13 18/30/13 20/31/13 19/32/13
f 19/32/2 20/31/2 24/33/2 23/34/2
f 23/34/14 24/33/14 22/35/14 21/36/14
f 21/36/4 22/35/4 18/37/4 17/38/4
f 19/39/11 23/34/11 21/36/11 17/40/11
f 24/33/12 20/41/12 18/42/12 22/35/12
f 25/43/4 26/44/4 28/45/4 27/46/4
f 27/46/13 28/45/13 32/47/13 31/48/13
f 31/48/2 32/47/2 30/49/2 29/50/2
f 29/50/14 30/49/14 26/51/14 25/52/14
f 27/53/11 31/48/11 29/50/11 25/54/11
f 32/47/12 28/55/12 26/56/12 30/49/12
f 33/57/15 35/58/15 36/59/15 34/60/15
f 35/58/16 39/61/16 40/62/16 36/59/16
f 39/61/17 37/63/17 38/64/17 40/62/17
f 37/63/18 33/65/18 34/66/18 38/64/18
f 35/67/11 33/68/11 37/63/11 39/61/11
f 40/62/12 38/64/12 34/69/12 36/70/12
f 41/71/2 43/72/2 44/73/2 42/74/2
f 43/72/13 47/75/13 48/76/13 44/73/13
f 47/75/4 45/77/4 46/78/4 48/76/4
f 45/77/14 41/79/14 42/80/14 46/78/14
f 43/81/11 41/82/11 45/77/11 47/75/11
f 48/76/12 46/78/12 42/83/12 44/84/12
f 54/85/19 50/86/19 52/87/19 56/88/19
f 54/89/20 53/90/20 49/91/20 50/86/20
f 56/92/4 55/93/4 53/90/4 54/89/4
f 52/87/21 51/94/21 55/95/21 56/96/21
f 49/91/22 53/97/22 55/98/22 51/94/22
f 50/86/2 49/91/2 51/94/2 52/87/2
f 62/99/20 58/100/20 60/101/20 64/102/20
f 62/103/22 61/104/22 57/105/22 58/100/22
f 64/106/4 63/107/4 61/104/4 62/103/4
f 60/101/19 59/108/19 63/109/19 64/110/19
f 57/105/21 61/111/21 63/112/21 59/108/21
f 58/100/2 57/105/2 59/108/2 60/101/2
o Cube.004_Cube.005
v -0.722280 6.237551 -1.192878
v -0.849572 6.192242 -1.192878
v 0.354742 3.211731 -1.192878
v 0.227450 3.166422 -1.192878
v -0.722280 6.237551 1.179754
v -0.849572 6.192242 1.179754
v 0.354742 3.211731 1.179754
v 0.227450 3.166422 1.179754
vt 0.125000 0.500000
vt 0.375000 0.500000
vt 0.375000 0.750000
vt 0.125000 0.750000
vt 0.375000 0.250000
vt 0.625000 0.250000
vt 0.625000 0.500000
vt 0.375000 0.000000
vt 0.625000 0.000000
vt 0.625000 0.750000
vt 0.625000 1.000000
vt 0.375000 1.000000
vt 0.875000 0.500000
vt 0.875000 0.750000
vn -0.9421 -0.3353 0.0000
vn -0.3353 0.9421 0.0000
vn 0.0000 -0.0000 1.0000
vn 0.3353 -0.9421 0.0000
vn 0.9421 0.3353 -0.0000
vn -0.0000 0.0000 -1.0000
usemtl Material.006
s off
f 70/113/23 66/114/23 68/115/23 72/116/23
f 70/117/24 69/118/24 65/119/24 66/114/24
f 72/120/25 71/121/25 69/118/25 70/117/25
f 68/115/26 67/122/26 71/123/26 72/124/26
f 65/119/27 69/125/27 71/126/27 67/122/27
f 66/114/28 65/119/28 67/122/28 68/115/28
